<svg xmlns="http://www.w3.org/2000/svg" width="58.5" height="35.25" viewBox="0 0 58.5 35.25">
    <path id="Path_148" data-name="Path 148"
        d="M101.1,199.661,127,183.113l-25.921-17.281A2.98,2.98,0,0,0,100,168.113v29.25A2.982,2.982,0,0,0,101.1,199.661Z"
        transform="translate(-100 -165.113)" fill="#ccc" />
    <path id="Path_149" data-name="Path 149"
        d="M293.922,165.832,268,183.113l25.9,16.548a2.982,2.982,0,0,0,1.1-2.3v-29.25A2.982,2.982,0,0,0,293.922,165.832Z"
        transform="translate(-236.5 -165.113)" fill="#ccc" />
    <path id="Path_150" data-name="Path 150"
        d="M133.842,242l-28.19,19.516a2.972,2.972,0,0,0,1.94.734h52.5a2.968,2.968,0,0,0,1.94-.734Z"
        transform="translate(-104.592 -227)" fill="#e6e6e6" />
    <path id="Path_151" data-name="Path 151"
        d="M133.842,182.25l28.19-19.516a2.972,2.972,0,0,0-1.94-.734h-52.5a2.968,2.968,0,0,0-1.94.734Z"
        transform="translate(-104.592 -162)" fill="#f5f5f5" />
</svg>
  